HIERARCHY
ROOT Hips
{
	OFFSET 0.000000 0.000000 0.000000 
	CHANNELS 6 Xposition Yposition Zposition Zrotation Yrotation Xrotation
	JOINT LeftUpLeg
	{
		OFFSET 1.363060 -1.794630 0.839290 
		CHANNELS 3 Zrotation Yrotation Xrotation
		JOINT LeftLeg
		{
			OFFSET 2.448110 -6.726130 0.000000 
			CHANNELS 3 Zrotation Yrotation Xrotation
			JOINT LeftFoot
			{
				OFFSET 2.562200 -7.039590 0.000000 
				CHANNELS 3 Zrotation Yrotation Xrotation
				JOINT LeftToeBase
				{
					OFFSET 0.157640 -0.433110 2.322550 
					CHANNELS 3 Zrotation Yrotation Xrotation
					End Site
					{
						OFFSET 0.000000 0.000000 0.000000 
					}
				}
			}
		}
	}
	JOINT RightUpLeg
	{
		OFFSET -1.305520 -1.794630 0.839290 
		CHANNELS 3 Zrotation Yrotation Xrotation
		JOINT RightLeg
		{
			OFFSET -2.542530 -6.985550 0.000000 
			CHANNELS 3 Zrotation Yrotation Xrotation
			JOINT RightFoot
			{
				OFFSET -2.568260 -7.056230 0.000000 
				CHANNELS 3 Zrotation Yrotation Xrotation
				JOINT RightToeBase
				{
					OFFSET -0.164730 -0.452590 2.363150 
					CHANNELS 3 Zrotation Yrotation Xrotation
					End Site
					{
						OFFSET 0.000000 0.000000 0.000000 
					}
				}
			}
		}
	}
	JOINT Spine
	{
		OFFSET 0.028270 2.035590 -0.193380 
		CHANNELS 3 Zrotation Yrotation Xrotation
		JOINT Spine1
		{
			OFFSET 0.056720 2.048850 -0.042750 
			CHANNELS 3 Zrotation Yrotation Xrotation
			JOINT Neck1
			{
				OFFSET -0.054170 1.746240 0.172020 
				CHANNELS 3 Zrotation Yrotation Xrotation
				JOINT Head
				{
					OFFSET 0.104070 1.761360 -0.123970 
					CHANNELS 3 Zrotation Yrotation Xrotation
					End Site
					{
						OFFSET 0.000000 0.000000 0.000000 
					}
				}
			}
			JOINT LeftArm
			{
				OFFSET 3.362410 1.200890 -0.311210 
				CHANNELS 3 Zrotation Yrotation Xrotation
				JOINT LeftForeArm
				{
					OFFSET 4.983000 -0.000000 -0.000000 
					CHANNELS 3 Zrotation Yrotation Xrotation
					JOINT LeftHand
					{
						OFFSET 3.483560 -0.000000 -0.000000 
						CHANNELS 3 Zrotation Yrotation Xrotation
						JOINT LeftHandIndex1
						{
							OFFSET 0.715260 -0.000000 -0.000000 
							CHANNELS 3 Zrotation Yrotation Xrotation
							End Site
							{
								OFFSET 0.000000 0.000000 0.000000 
							}
						}
					}
				}
			}
			JOINT RightArm
			{
				OFFSET -3.136600 1.374050 -0.404650 
				CHANNELS 3 Zrotation Yrotation Xrotation
				JOINT RightForeArm
				{
					OFFSET -5.241900 -0.000000 -0.000000 
					CHANNELS 3 Zrotation Yrotation Xrotation
					JOINT RightHand
					{
						OFFSET -3.444170 -0.000000 -0.000000 
						CHANNELS 3 Zrotation Yrotation Xrotation
						JOINT RightHandIndex1
						{
							OFFSET -0.622530 -0.000000 -0.000000 
							CHANNELS 3 Zrotation Yrotation Xrotation
							End Site
							{
								OFFSET 0.000000 0.000000 0.000000 
							}
						}
					}
				}
			}
		}
	}
}
MOTION
Frames: 12
Frame Time: 0.041667
-7.401845 17.785195 11.357677 167.714772 -55.932193 -169.218064 -20.926365 2.931344 8.197841 -0.366808 3.666043 13.122618 0.150254 -6.716380 4.131943 1.553100 -7.865500 -22.306200 21.421246 3.726161 -26.329497 -2.100340 -9.332815 27.051504 1.605757 -12.068638 4.909666 -0.793300 -5.685300 15.874100 3.439255 -5.929715 1.509308 7.584801 -3.143903 -4.116921 12.830410 -28.873369 28.681006 3.360400 -14.262600 16.651300 -84.287162 -7.630849 25.724795 21.388961 -29.032681 -6.583129 -0.741535 -1.947143 4.309948 -7.125000 0.000000 0.000000 83.322792 -5.882048 2.504300 -17.816064 25.749290 -4.086754 0.321308 -0.091157 7.207807 7.125000 0.000000 0.000000 
-7.299206 17.781718 11.443425 167.227237 -56.345469 -168.659887 -21.027245 3.167141 7.618782 -0.386996 3.589002 12.904270 0.174065 -7.216776 3.897256 1.405100 -7.498100 -21.199600 20.717358 4.358207 -26.568437 -2.088313 -9.319260 26.985732 1.551843 -11.834000 5.122800 -0.795000 -5.691300 15.891400 3.398342 -6.005736 1.557423 7.771531 -3.181667 -4.083145 12.786395 -28.682500 28.729165 3.337500 -14.131700 16.673600 -84.283015 -7.856308 25.667227 21.458041 -29.111139 -6.621178 -0.742866 -1.958094 4.200183 -7.125000 0.000000 0.000000 83.343486 -5.514102 2.450057 -17.858640 25.812553 -4.108095 0.316783 -0.089753 6.889265 7.125000 0.000000 0.000000 
-7.201336 17.775458 11.530464 166.769964 -56.728321 -168.169292 -21.109500 3.496455 6.980488 -0.383703 3.570090 12.856709 0.202826 -7.973319 3.776272 1.206900 -6.969600 -19.625300 19.998415 4.965968 -26.776255 -2.080849 -9.311388 26.947368 1.477115 -11.468020 5.320261 -0.742800 -5.505600 15.356600 3.366167 -6.106465 1.607761 7.924509 -3.232935 -4.057024 12.870621 -28.419610 28.689952 3.408500 -13.990000 16.675000 -84.291411 -7.991433 25.470311 21.512948 -29.174421 -6.650151 -0.736915 -1.970957 4.236978 -7.125000 0.000000 0.000000 83.346476 -5.151389 2.300134 -17.882510 25.853661 -4.120520 0.312113 -0.095073 7.065538 7.125000 0.000000 0.000000 
-7.104162 17.767112 11.613530 166.015793 -57.129715 -167.557736 -21.356182 3.638151 6.504972 -0.363662 3.623775 13.009320 0.221952 -8.571060 3.685858 0.972400 -6.277900 -17.592900 19.165511 5.410618 -26.848899 -2.074721 -9.299798 26.910994 1.339523 -10.769850 5.663872 -0.468200 -4.388500 12.172400 3.250370 -6.212448 1.660828 8.025328 -3.279910 -4.094499 13.155645 -28.215061 28.536917 3.572200 -13.887800 16.631700 -84.164861 -8.016482 25.403462 21.556418 -29.231156 -6.677314 -0.726646 -1.969512 4.163999 -7.125000 0.000000 0.000000 83.452362 -4.975992 2.309398 -17.978729 25.982802 -4.165340 0.315478 -0.098056 7.140919 7.125000 0.000000 0.000000 
-7.009472 17.761746 11.688944 165.238350 -57.602035 -166.932308 -21.600896 3.636078 6.085920 -0.349139 3.679021 13.157916 0.235240 -8.978532 3.600611 0.850500 -5.881700 -16.441500 18.348253 5.782274 -26.832914 -2.073780 -9.301027 26.931858 1.178223 -9.804542 5.706589 -0.204700 -2.913200 8.037200 3.119184 -6.299588 1.714884 8.093524 -3.318782 -4.115805 13.412575 -28.108265 28.534227 3.691900 -13.816500 16.703500 -84.014708 -8.012574 25.551121 21.618906 -29.313195 -6.718579 -0.720417 -1.975024 3.807424 -7.125000 0.000000 0.000000 83.640538 -4.878010 2.216909 -18.133792 26.191492 -4.238466 0.319122 -0.102062 6.956294 7.125000 0.000000 0.000000 
-6.917861 17.751909 11.765153 164.646755 -58.090417 -166.426196 -21.749022 3.835848 5.527288 -0.333837 3.710671 13.245402 0.258881 -9.719833 3.405669 0.917000 -6.101500 -17.079200 17.515850 6.380765 -26.803757 -2.088549 -9.336964 27.058846 1.068632 -9.038724 5.430826 -0.134500 -2.364000 6.512600 2.994682 -6.334525 1.808713 8.036980 -3.343662 -4.045041 13.527252 -27.980262 28.583693 3.724400 -13.710200 16.752200 -83.886336 -8.193481 25.855859 21.580946 -29.269111 -6.694182 -0.743176 -1.995131 3.011209 -7.125000 0.000000 0.000000 83.834196 -4.737338 2.237461 -18.260838 26.362914 -4.298918 0.325902 -0.106855 6.495244 7.125000 0.000000 0.000000 
-6.826549 17.737502 11.843946 163.771608 -58.570619 -165.659136 -22.088740 3.920652 4.929636 -0.306237 3.797150 13.482465 0.282942 -10.460895 3.080244 1.042700 -6.494000 -18.224500 16.438889 7.179414 -26.796716 -2.110982 -9.387597 27.221890 0.980770 -8.418474 5.182576 -0.131300 -2.335400 6.433600 2.860153 -6.315884 1.811988 8.020449 -3.316177 -4.187646 13.596005 -27.823458 28.528217 3.784200 -13.630500 16.671200 -83.859941 -8.211353 26.364088 21.502998 -29.176057 -6.645297 -0.813184 -2.008566 1.800657 -7.125000 0.000000 0.000000 83.960800 -4.881647 2.251879 -18.440004 26.595162 -4.384623 0.326442 -0.102312 6.122440 7.125000 0.000000 0.000000 
-6.736231 17.724287 11.920156 163.225184 -59.010333 -165.199031 -22.303872 3.717686 4.409621 -0.270139 3.956698 13.906732 0.311556 -10.854601 2.555154 1.234100 -7.045000 -19.848700 15.685311 7.824716 -26.756624 -2.142355 -9.444465 27.433939 0.841691 -7.464518 4.932451 -0.088500 -1.918700 5.281100 2.761024 -6.182075 1.728430 7.913464 -3.208856 -4.610967 13.816700 -27.805859 28.404516 3.929100 -13.645100 16.630900 -83.845086 -8.094082 27.054823 21.351775 -28.994325 -6.553547 -0.886777 -2.039380 0.930136 -7.125000 0.000000 0.000000 84.105615 -5.324510 2.176487 -18.712374 26.940305 -4.514689 0.326591 -0.093558 5.650174 7.125000 0.000000 0.000000 
-6.647303 17.723194 11.991596 163.027211 -59.365229 -165.001866 -22.385402 3.336628 4.004547 -0.257278 4.067987 14.183759 0.327058 -10.803849 2.288227 1.088000 -6.629100 -18.621000 15.215836 8.266284 -26.857226 -2.213884 -9.570609 27.880918 0.648470 -6.157330 4.705500 -0.045800 -1.381800 3.800100 2.788363 -6.093076 1.841624 7.957489 -3.183879 -4.507327 14.013848 -27.720408 28.259448 4.056300 -13.598700 16.654200 -83.921783 -8.492471 27.106116 21.084881 -28.658989 -6.382674 -0.932143 -2.084375 1.267214 -7.125000 0.000000 0.000000 83.980659 -5.210251 2.428284 -18.850019 27.116973 -4.579766 0.334588 -0.093375 5.111398 7.125000 0.000000 0.000000 
-6.560462 17.720710 12.064923 162.717287 -59.701767 -164.775277 -22.548361 3.007222 3.572535 -0.230044 4.217450 14.572336 0.339977 -10.766758 2.057932 0.948500 -6.202400 -17.372800 14.668774 8.657832 -26.879170 -2.301964 -9.724337 28.414974 0.477397 -4.937258 4.338079 -0.022100 -0.958900 2.635900 2.711028 -5.948267 1.928029 7.724278 -3.118427 -4.537114 14.001796 -27.704397 28.418401 4.062300 -13.571800 16.845400 -83.876119 -8.892559 27.028404 20.708370 -28.180011 -6.157159 -0.861318 -2.083072 2.023476 -7.125000 0.000000 0.000000 83.998969 -5.208780 2.530483 -18.983612 27.292080 -4.646260 0.335582 -0.091760 4.698303 7.125000 0.000000 0.000000 
-6.476503 17.701136 12.135767 162.539165 -60.048609 -164.722453 -22.651588 2.901147 3.096510 -0.182834 4.413075 15.097224 0.371272 -10.795926 1.431833 1.080900 -6.608100 -18.559300 14.226567 9.087562 -26.852600 -2.416977 -9.923417 29.094371 0.351293 -3.960334 3.735726 -0.022900 -0.976700 2.684700 2.587621 -5.842121 2.001286 7.380105 -3.066848 -4.608447 13.909310 -27.604939 28.668488 4.031600 -13.508300 16.990800 -83.672975 -9.177269 27.197073 20.333026 -27.706952 -5.939502 -0.783067 -2.101156 1.790632 -7.125000 0.000000 0.000000 84.208546 -5.408960 2.680691 -19.218420 27.598849 -4.767095 0.329234 -0.087424 4.454367 7.125000 0.000000 0.000000 
-6.393140 17.709880 12.197768 162.814477 -60.441423 -165.085634 -22.458592 2.019789 2.933984 -0.144054 4.627264 15.660843 0.354753 -10.419288 1.870920 0.275800 -3.377900 -9.332600 14.167305 9.374922 -26.729928 -2.550250 -10.142284 29.851998 0.255114 -3.189218 3.100066 -0.014100 -0.765600 2.104000 2.525833 -5.803154 2.096995 7.103805 -3.057787 -4.593134 13.953210 -27.380900 28.723571 4.084000 -13.399900 16.945700 -83.403079 -9.350575 27.358363 20.001346 -27.301120 -5.742231 -0.855361 -2.129539 1.450765 -7.125000 0.000000 0.000000 84.401252 -5.624125 3.110382 -19.405686 27.839174 -4.863372 0.332548 -0.096000 4.312192 7.125000 0.000000 0.000000 
